Coordinates
version=1
nRows=9
nColumns=42
inDegrees=yes

Units are S.I. units (second, meters, Newtons, ...)
If the header above contains a line with 'inDegrees', this indicates whether rotational values are in degrees (yes) or radians (no).

endheader
time	pelvis_tilt	pelvis_list	pelvis_rotation	pelvis_tx	pelvis_ty	pelvis_tz	hip_flexion_r	hip_adduction_r	hip_rotation_r	knee_angle_r	knee_adduction_r	knee_angle_r_beta	ankle_angle_r	subtalar_angle_r	mtp_angle_r	hip_flexion_l	hip_adduction_l	hip_rotation_l	knee_angle_l	knee_adduction_l	knee_angle_l_beta	ankle_angle_l	subtalar_angle_l	mtp_angle_l	lumbar_extension	lumbar_bending	lumbar_rotation	arm_flex_r	arm_add_r	arm_rot_r	elbow_flex_r	pro_sup_r	wrist_flex_r	wrist_dev_r	arm_flex_l	arm_add_l	arm_rot_l	elbow_flex_l	pro_sup_l	wrist_flex_l	wrist_dev_l
      0.34000000	     12.97896177	     -0.70451507	      4.93053543	     -1.62440727	      0.82955989	      0.09396392	     14.92946026	      1.87177386	    -23.54332061	     15.87442934	     -2.93895266	      0.27706106	     12.11908282	      1.12801143	     -9.37359843	    -28.76432921	     -1.71200450	    -17.44434603	     16.42370684	      0.91208959	      0.28664776	     21.35680092	      8.24283661	     -9.37359843	    -26.12731415	      2.88344982	     -2.71458754	    -13.37104178	     -2.26041272	    -12.08758526	     26.49198137	     90.00000001	      0.00000000	      0.00000000	     24.03035426	    -11.06153131	      3.60656073	     51.43544441	     90.00000001	      0.00000000	      0.00000000
      0.35000000	     12.96418543	     -0.90625853	      4.97804883	     -1.61178544	      0.82981209	      0.09462963	     14.74071422	      2.25179826	    -23.25638382	     16.88001125	     -3.21249525	      0.29461177	     11.52717767	      0.41704749	     -9.19054684	    -28.82462274	     -1.97867782	    -16.32234445	     17.92728643	      0.54880695	      0.31289017	     19.86219460	      6.34435756	     -9.19054684	    -25.97490178	      3.18651734	     -2.69650382	    -13.12154871	     -2.20271446	    -12.74890073	     26.11429741	     90.00000001	      0.00000000	      0.00000000	     23.57996339	    -10.79705383	      3.09435507	     51.37293965	     90.00000001	      0.00000000	      0.00000000
      0.36000000	     13.04975386	     -1.15964855	      4.97966834	     -1.59909214	      0.83041820	      0.09542881	     14.44187562	      2.70288938	    -23.01587226	     18.01602181	     -3.54085906	      0.31443890	     11.07354573	     -0.03885090	     -9.15309886	    -28.76438963	     -2.40014968	    -15.86428879	     19.86654602	      0.20187400	      0.34673664	     18.23095998	      5.27540966	     -9.15309886	    -25.93645379	      3.52927101	     -2.60832671	    -12.96706528	     -2.25765731	    -12.81111631	     26.09235332	     90.00000001	      0.00000000	      0.00000000	     23.06502915	    -10.62021271	      3.04230345	     51.14174312	     90.00000001	      0.00000000	      0.00000000
      0.37000000	     13.10258159	     -1.38258350	      4.87576347	     -1.58642437	      0.83138420	      0.09635833	     14.04818579	      3.19959487	    -21.85022820	     19.03311897	     -3.66403619	      0.33219059	     10.33486878	     -1.84414633	     -9.01707131	    -28.78989155	     -2.56620910	    -13.68060858	     21.53989478	      0.22278753	      0.37594208	     15.72984672	      1.38575927	     -9.01707131	    -25.88284125	      3.80805315	     -2.49205157	    -12.61505723	     -2.31072810	    -12.97541875	     25.89050133	     90.00000001	      0.00000000	      0.00000000	     22.51072062	    -10.35996402	      2.55040133	     50.69978352	     90.00000001	      0.00000000	      0.00000000
      0.38000000	     13.27602168	     -1.64651284	      4.74891758	     -1.57374346	      0.83270095	      0.09740179	     13.47136142	      3.74905724	    -20.60282267	     20.05067600	     -3.70856404	      0.34995031	      9.80575720	     -3.51773448	     -8.88388379	    -28.74666395	     -2.86869068	    -11.90787526	     23.55629961	      0.35049284	      0.41113499	     13.03394381	     -1.98586252	     -8.88388379	    -25.97673060	      4.11200095	     -2.32229729	    -12.23964716	     -2.39467880	    -13.07621306	     25.82427952	     90.00000001	      0.00000000	      0.00000000	     21.89365360	    -10.12666773	      2.25829820	     50.26083775	     90.00000001	      0.00000000	      0.00000000
      0.39000000	     13.52461649	     -1.96445560	      4.60054006	     -1.56104191	      0.83417654	      0.09859819	     12.83556868	      4.32262881	    -19.80616185	     21.12569954	     -3.80017525	      0.36871301	      9.72710436	     -4.07270324	     -8.85802795	    -28.45187805	     -3.38911604	    -11.31265129	     26.15575633	      0.34455788	      0.45650407	     10.49636785	     -3.46650140	     -8.85802795	    -26.14442187	      4.45371631	     -2.10647937	    -11.83542777	     -2.49538903	    -13.07192517	     25.89722738	     90.00000001	      0.00000000	      0.00000000	     21.17150677	    -10.02481479	      2.20279071	     49.87509210	     90.00000001	      0.00000000	      0.00000000
      0.40000000	     13.76121378	     -2.15396383	      4.34700118	     -1.54855510	      0.83611046	      0.09986033	     11.96148795	      4.88966636	    -17.50634552	     21.85919485	     -3.51322378	      0.38151492	      9.07260787	     -7.08115237	     -8.74812683	    -28.39049163	     -3.49564749	     -8.13442878	     28.14681137	      1.15483820	      0.49125453	      6.75946073	     -9.34088255	     -8.74812683	    -26.34667130	      4.61232983	     -1.89575069	    -11.27201786	     -2.61286914	    -13.09061500	     25.81249245	     90.00000001	      0.00000000	      0.00000000	     20.54592143	     -9.75935378	      1.78359097	     49.08303646	     90.00000001	      0.00000000	      0.00000000
      0.41000000	     14.06563128	     -2.44043690	      4.16460282	     -1.53601663	      0.83791459	      0.10126759	     11.09924969	      5.45230934	    -16.52997959	     22.67264551	     -3.43437970	      0.39571231	      9.27972318	     -7.46079994	     -8.72985927	    -27.88196572	     -4.04504136	     -7.40889540	     31.01320139	      1.45608514	      0.54128248	      4.39017663	    -10.52649430	     -8.72985927	    -26.59809314	      4.85480944	     -1.68289074	    -10.76721213	     -2.72331584	    -13.07648779	     25.96995146	     90.00000001	      0.00000000	      0.00000000	     19.76462998	     -9.67311986	      1.75701915	     48.64209815	     90.00000001	      0.00000000	      0.00000000
      0.42000000	     14.31234005	     -2.62831949	      3.83401141	     -1.52376852	      0.83988007	      0.10267302	     10.15691102	      5.97341682	    -14.69425382	     23.27681465	     -3.15934993	      0.40625705	      9.36328313	     -9.15463793	     -8.68450614	    -27.25602341	     -4.32139965	     -6.10244769	     33.78231780	      1.91687194	      0.58961267	      0.72561261	    -14.22333478	     -8.68450614	    -26.83407146	      4.96181344	     -1.34303887	    -10.14057560	     -2.84626612	    -13.03876803	     26.07600217	     90.00000001	      0.00000000	      0.00000000	     19.04718657	     -9.51547726	      1.60724143	     47.78823077	     90.00000001	      0.00000000	      0.00000000
